<mxfile host="app.diagrams.net" modified="2024-02-18T18:29:17.686Z" agent="Mozilla/5.0 (Windows NT 10.0; Win64; x64) AppleWebKit/537.36 (KHTML, like Gecko) Chrome/121.0.0.0 Safari/537.36" etag="HQLJGpDnKXRFASnicu88" version="23.1.5" type="device">
  <diagram name="Страница — 1" id="V8mCKDNsNIXpNRHH7cHt">
    <mxGraphModel dx="1434" dy="780" grid="1" gridSize="10" guides="1" tooltips="1" connect="1" arrows="1" fold="1" page="1" pageScale="1" pageWidth="827" pageHeight="1169" math="0" shadow="0">
      <root>
        <mxCell id="0" />
        <mxCell id="1" parent="0" />
        <mxCell id="NndXJFiwsGPl76JItb5S-16" style="edgeStyle=orthogonalEdgeStyle;rounded=0;orthogonalLoop=1;jettySize=auto;html=1;exitX=0.5;exitY=1;exitDx=0;exitDy=0;entryX=0.5;entryY=0;entryDx=0;entryDy=0;" edge="1" parent="1" source="NndXJFiwsGPl76JItb5S-1" target="NndXJFiwsGPl76JItb5S-3">
          <mxGeometry relative="1" as="geometry" />
        </mxCell>
        <mxCell id="NndXJFiwsGPl76JItb5S-1" value="Accept array[i] to sort" style="ellipse;whiteSpace=wrap;html=1;" vertex="1" parent="1">
          <mxGeometry x="300" y="130" width="120" height="60" as="geometry" />
        </mxCell>
        <mxCell id="NndXJFiwsGPl76JItb5S-5" value="Y" style="edgeStyle=orthogonalEdgeStyle;rounded=0;orthogonalLoop=1;jettySize=auto;html=1;exitX=0.5;exitY=1;exitDx=0;exitDy=0;entryX=1;entryY=0.5;entryDx=0;entryDy=0;" edge="1" parent="1" source="NndXJFiwsGPl76JItb5S-2" target="NndXJFiwsGPl76JItb5S-4">
          <mxGeometry relative="1" as="geometry" />
        </mxCell>
        <mxCell id="NndXJFiwsGPl76JItb5S-12" style="edgeStyle=orthogonalEdgeStyle;rounded=0;orthogonalLoop=1;jettySize=auto;html=1;exitX=1;exitY=0.5;exitDx=0;exitDy=0;" edge="1" parent="1" source="NndXJFiwsGPl76JItb5S-2">
          <mxGeometry relative="1" as="geometry">
            <mxPoint x="460" y="350" as="targetPoint" />
          </mxGeometry>
        </mxCell>
        <mxCell id="NndXJFiwsGPl76JItb5S-19" value="N" style="edgeLabel;html=1;align=center;verticalAlign=middle;resizable=0;points=[];" vertex="1" connectable="0" parent="NndXJFiwsGPl76JItb5S-12">
          <mxGeometry x="-0.0619" y="2" relative="1" as="geometry">
            <mxPoint as="offset" />
          </mxGeometry>
        </mxCell>
        <mxCell id="NndXJFiwsGPl76JItb5S-2" value="while&lt;br&gt;i&amp;lt;array.Length" style="rhombus;whiteSpace=wrap;html=1;" vertex="1" parent="1">
          <mxGeometry x="300" y="310" width="120" height="80" as="geometry" />
        </mxCell>
        <mxCell id="NndXJFiwsGPl76JItb5S-17" style="edgeStyle=orthogonalEdgeStyle;rounded=0;orthogonalLoop=1;jettySize=auto;html=1;exitX=0.5;exitY=1;exitDx=0;exitDy=0;entryX=0.5;entryY=0;entryDx=0;entryDy=0;" edge="1" parent="1" source="NndXJFiwsGPl76JItb5S-3" target="NndXJFiwsGPl76JItb5S-2">
          <mxGeometry relative="1" as="geometry" />
        </mxCell>
        <mxCell id="NndXJFiwsGPl76JItb5S-3" value="int i = 0;&lt;br&gt;int j = 0;" style="shape=parallelogram;perimeter=parallelogramPerimeter;whiteSpace=wrap;html=1;fixedSize=1;" vertex="1" parent="1">
          <mxGeometry x="300" y="230" width="120" height="40" as="geometry" />
        </mxCell>
        <mxCell id="NndXJFiwsGPl76JItb5S-8" style="edgeStyle=orthogonalEdgeStyle;rounded=0;orthogonalLoop=1;jettySize=auto;html=1;exitX=0.5;exitY=0;exitDx=0;exitDy=0;entryX=0.5;entryY=1;entryDx=0;entryDy=0;" edge="1" parent="1" source="NndXJFiwsGPl76JItb5S-4" target="NndXJFiwsGPl76JItb5S-6">
          <mxGeometry relative="1" as="geometry" />
        </mxCell>
        <mxCell id="NndXJFiwsGPl76JItb5S-11" value="N" style="edgeLabel;html=1;align=center;verticalAlign=middle;resizable=0;points=[];" vertex="1" connectable="0" parent="NndXJFiwsGPl76JItb5S-8">
          <mxGeometry relative="1" as="geometry">
            <mxPoint as="offset" />
          </mxGeometry>
        </mxCell>
        <mxCell id="NndXJFiwsGPl76JItb5S-14" style="edgeStyle=orthogonalEdgeStyle;rounded=0;orthogonalLoop=1;jettySize=auto;html=1;exitX=0;exitY=0.5;exitDx=0;exitDy=0;entryX=0.5;entryY=1;entryDx=0;entryDy=0;" edge="1" parent="1" source="NndXJFiwsGPl76JItb5S-4" target="NndXJFiwsGPl76JItb5S-9">
          <mxGeometry relative="1" as="geometry" />
        </mxCell>
        <mxCell id="NndXJFiwsGPl76JItb5S-15" value="Y" style="edgeLabel;html=1;align=center;verticalAlign=middle;resizable=0;points=[];" vertex="1" connectable="0" parent="NndXJFiwsGPl76JItb5S-14">
          <mxGeometry x="-0.1091" y="-1" relative="1" as="geometry">
            <mxPoint as="offset" />
          </mxGeometry>
        </mxCell>
        <mxCell id="NndXJFiwsGPl76JItb5S-4" value="if(array.Length&lt;br&gt;&amp;nbsp;&amp;lt;= 3)" style="rhombus;whiteSpace=wrap;html=1;" vertex="1" parent="1">
          <mxGeometry x="180" y="430" width="120" height="80" as="geometry" />
        </mxCell>
        <mxCell id="NndXJFiwsGPl76JItb5S-7" style="edgeStyle=orthogonalEdgeStyle;rounded=0;orthogonalLoop=1;jettySize=auto;html=1;exitX=1;exitY=0.5;exitDx=0;exitDy=0;entryX=0;entryY=0.5;entryDx=0;entryDy=0;" edge="1" parent="1" source="NndXJFiwsGPl76JItb5S-6" target="NndXJFiwsGPl76JItb5S-2">
          <mxGeometry relative="1" as="geometry" />
        </mxCell>
        <mxCell id="NndXJFiwsGPl76JItb5S-6" value="i++" style="rounded=0;whiteSpace=wrap;html=1;" vertex="1" parent="1">
          <mxGeometry x="220" y="320" width="40" height="60" as="geometry" />
        </mxCell>
        <mxCell id="NndXJFiwsGPl76JItb5S-10" style="edgeStyle=orthogonalEdgeStyle;rounded=0;orthogonalLoop=1;jettySize=auto;html=1;exitX=1;exitY=0.5;exitDx=0;exitDy=0;entryX=0;entryY=0.5;entryDx=0;entryDy=0;" edge="1" parent="1" source="NndXJFiwsGPl76JItb5S-9" target="NndXJFiwsGPl76JItb5S-6">
          <mxGeometry relative="1" as="geometry" />
        </mxCell>
        <mxCell id="NndXJFiwsGPl76JItb5S-9" value="j++" style="rounded=0;whiteSpace=wrap;html=1;" vertex="1" parent="1">
          <mxGeometry x="140" y="320" width="40" height="60" as="geometry" />
        </mxCell>
        <mxCell id="NndXJFiwsGPl76JItb5S-38" style="edgeStyle=orthogonalEdgeStyle;rounded=0;orthogonalLoop=1;jettySize=auto;html=1;exitX=0.5;exitY=1;exitDx=0;exitDy=0;entryX=0.5;entryY=0;entryDx=0;entryDy=0;" edge="1" parent="1" source="NndXJFiwsGPl76JItb5S-18" target="NndXJFiwsGPl76JItb5S-37">
          <mxGeometry relative="1" as="geometry" />
        </mxCell>
        <mxCell id="NndXJFiwsGPl76JItb5S-18" value="string arraySort &lt;br&gt;= new string [j]" style="shape=parallelogram;perimeter=parallelogramPerimeter;whiteSpace=wrap;html=1;fixedSize=1;" vertex="1" parent="1">
          <mxGeometry x="520" y="320" width="120" height="60" as="geometry" />
        </mxCell>
        <mxCell id="NndXJFiwsGPl76JItb5S-21" style="edgeStyle=orthogonalEdgeStyle;rounded=0;orthogonalLoop=1;jettySize=auto;html=1;exitX=1;exitY=0.5;exitDx=0;exitDy=0;entryX=0;entryY=0.5;entryDx=0;entryDy=0;" edge="1" parent="1" source="NndXJFiwsGPl76JItb5S-20" target="NndXJFiwsGPl76JItb5S-18">
          <mxGeometry relative="1" as="geometry" />
        </mxCell>
        <mxCell id="NndXJFiwsGPl76JItb5S-20" value="i=0;" style="rounded=0;whiteSpace=wrap;html=1;" vertex="1" parent="1">
          <mxGeometry x="460" y="320" width="40" height="60" as="geometry" />
        </mxCell>
        <mxCell id="NndXJFiwsGPl76JItb5S-26" style="edgeStyle=orthogonalEdgeStyle;rounded=0;orthogonalLoop=1;jettySize=auto;html=1;exitX=0.5;exitY=1;exitDx=0;exitDy=0;entryX=1;entryY=0.5;entryDx=0;entryDy=0;" edge="1" parent="1" source="NndXJFiwsGPl76JItb5S-23" target="NndXJFiwsGPl76JItb5S-25">
          <mxGeometry relative="1" as="geometry" />
        </mxCell>
        <mxCell id="NndXJFiwsGPl76JItb5S-34" value="Y" style="edgeLabel;html=1;align=center;verticalAlign=middle;resizable=0;points=[];" vertex="1" connectable="0" parent="NndXJFiwsGPl76JItb5S-26">
          <mxGeometry x="-0.3714" relative="1" as="geometry">
            <mxPoint as="offset" />
          </mxGeometry>
        </mxCell>
        <mxCell id="NndXJFiwsGPl76JItb5S-46" style="edgeStyle=orthogonalEdgeStyle;rounded=0;orthogonalLoop=1;jettySize=auto;html=1;exitX=1;exitY=0.5;exitDx=0;exitDy=0;entryX=0.5;entryY=0;entryDx=0;entryDy=0;" edge="1" parent="1" source="NndXJFiwsGPl76JItb5S-23" target="NndXJFiwsGPl76JItb5S-42">
          <mxGeometry relative="1" as="geometry">
            <mxPoint x="700" y="550" as="targetPoint" />
          </mxGeometry>
        </mxCell>
        <mxCell id="NndXJFiwsGPl76JItb5S-48" value="N" style="edgeLabel;html=1;align=center;verticalAlign=middle;resizable=0;points=[];" vertex="1" connectable="0" parent="NndXJFiwsGPl76JItb5S-46">
          <mxGeometry x="-0.2" y="3" relative="1" as="geometry">
            <mxPoint as="offset" />
          </mxGeometry>
        </mxCell>
        <mxCell id="NndXJFiwsGPl76JItb5S-23" value="while&lt;br&gt;i&amp;lt;array.Length" style="rhombus;whiteSpace=wrap;html=1;" vertex="1" parent="1">
          <mxGeometry x="520" y="510" width="120" height="80" as="geometry" />
        </mxCell>
        <mxCell id="NndXJFiwsGPl76JItb5S-33" style="edgeStyle=orthogonalEdgeStyle;rounded=0;orthogonalLoop=1;jettySize=auto;html=1;exitX=0.5;exitY=0;exitDx=0;exitDy=0;entryX=0.5;entryY=1;entryDx=0;entryDy=0;" edge="1" parent="1" source="NndXJFiwsGPl76JItb5S-25" target="NndXJFiwsGPl76JItb5S-27">
          <mxGeometry relative="1" as="geometry" />
        </mxCell>
        <mxCell id="NndXJFiwsGPl76JItb5S-35" value="N" style="edgeLabel;html=1;align=center;verticalAlign=middle;resizable=0;points=[];" vertex="1" connectable="0" parent="NndXJFiwsGPl76JItb5S-33">
          <mxGeometry x="0.04" y="2" relative="1" as="geometry">
            <mxPoint as="offset" />
          </mxGeometry>
        </mxCell>
        <mxCell id="NndXJFiwsGPl76JItb5S-36" style="edgeStyle=orthogonalEdgeStyle;rounded=0;orthogonalLoop=1;jettySize=auto;html=1;exitX=0;exitY=0.5;exitDx=0;exitDy=0;entryX=0.5;entryY=1;entryDx=0;entryDy=0;" edge="1" parent="1" source="NndXJFiwsGPl76JItb5S-25" target="NndXJFiwsGPl76JItb5S-29">
          <mxGeometry relative="1" as="geometry" />
        </mxCell>
        <mxCell id="NndXJFiwsGPl76JItb5S-40" value="Y" style="edgeLabel;html=1;align=center;verticalAlign=middle;resizable=0;points=[];" vertex="1" connectable="0" parent="NndXJFiwsGPl76JItb5S-36">
          <mxGeometry x="-0.7733" y="1" relative="1" as="geometry">
            <mxPoint as="offset" />
          </mxGeometry>
        </mxCell>
        <mxCell id="NndXJFiwsGPl76JItb5S-25" value="if(array.Length&lt;br&gt;&amp;nbsp;&amp;lt;= 3)" style="rhombus;whiteSpace=wrap;html=1;" vertex="1" parent="1">
          <mxGeometry x="400" y="630" width="120" height="80" as="geometry" />
        </mxCell>
        <mxCell id="NndXJFiwsGPl76JItb5S-31" style="edgeStyle=orthogonalEdgeStyle;rounded=0;orthogonalLoop=1;jettySize=auto;html=1;exitX=1;exitY=0.5;exitDx=0;exitDy=0;entryX=0;entryY=0.5;entryDx=0;entryDy=0;" edge="1" parent="1" source="NndXJFiwsGPl76JItb5S-27" target="NndXJFiwsGPl76JItb5S-23">
          <mxGeometry relative="1" as="geometry" />
        </mxCell>
        <mxCell id="NndXJFiwsGPl76JItb5S-27" value="i++;" style="rounded=0;whiteSpace=wrap;html=1;" vertex="1" parent="1">
          <mxGeometry x="440" y="520" width="40" height="60" as="geometry" />
        </mxCell>
        <mxCell id="NndXJFiwsGPl76JItb5S-32" style="edgeStyle=orthogonalEdgeStyle;rounded=0;orthogonalLoop=1;jettySize=auto;html=1;exitX=1;exitY=0.5;exitDx=0;exitDy=0;entryX=0;entryY=0.5;entryDx=0;entryDy=0;" edge="1" parent="1" source="NndXJFiwsGPl76JItb5S-29" target="NndXJFiwsGPl76JItb5S-27">
          <mxGeometry relative="1" as="geometry" />
        </mxCell>
        <mxCell id="NndXJFiwsGPl76JItb5S-29" value="arraySort[j] = array[i];&lt;br&gt;j++;" style="rounded=0;whiteSpace=wrap;html=1;" vertex="1" parent="1">
          <mxGeometry x="280" y="520" width="120" height="60" as="geometry" />
        </mxCell>
        <mxCell id="NndXJFiwsGPl76JItb5S-39" style="edgeStyle=orthogonalEdgeStyle;rounded=0;orthogonalLoop=1;jettySize=auto;html=1;exitX=0.5;exitY=1;exitDx=0;exitDy=0;entryX=0.5;entryY=0;entryDx=0;entryDy=0;" edge="1" parent="1" source="NndXJFiwsGPl76JItb5S-37" target="NndXJFiwsGPl76JItb5S-23">
          <mxGeometry relative="1" as="geometry" />
        </mxCell>
        <mxCell id="NndXJFiwsGPl76JItb5S-37" value="j=0;" style="rounded=0;whiteSpace=wrap;html=1;" vertex="1" parent="1">
          <mxGeometry x="560" y="420" width="40" height="60" as="geometry" />
        </mxCell>
        <mxCell id="NndXJFiwsGPl76JItb5S-42" value="Show arraySort[j]" style="ellipse;whiteSpace=wrap;html=1;" vertex="1" parent="1">
          <mxGeometry x="640" y="590" width="120" height="60" as="geometry" />
        </mxCell>
      </root>
    </mxGraphModel>
  </diagram>
</mxfile>
